<?xml version="1.0" standalone="no"?>
<!DOCTYPE svg PUBLIC "-//W3C//DTD SVG 1.1//EN" 
  "http://www.w3.org/Graphics/SVG/1.1/DTD/svg11.dtd">
<svg width="128" height="128" viewBox="0 0 128 128"
     xmlns="http://www.w3.org/2000/svg" version="1.1">
<desc>'', Weapon_Battle_Rifle, (Blender 2.79 (sub 0))</desc>
<polygon stroke="black" stroke-width="1" fill="rgb(204, 204, 204)" fill-opacity="0.25" points="118.000,3.000 118.000,14.000 126.000,14.000 126.000,3.000 " />
<polygon stroke="black" stroke-width="1" fill="rgb(204, 204, 204)" fill-opacity="0.25" points="118.000,40.000 126.000,40.000 126.000,24.000 118.000,24.000 " />
<polygon stroke="black" stroke-width="1" fill="rgb(204, 204, 204)" fill-opacity="0.25" points="25.000,46.000 23.000,29.000 2.000,29.000 2.000,46.000 " />
<polygon stroke="black" stroke-width="1" fill="rgb(204, 204, 204)" fill-opacity="0.25" points="126.000,51.000 118.000,51.000 118.000,75.000 126.000,75.000 " />
<polygon stroke="black" stroke-width="1" fill="rgb(204, 204, 204)" fill-opacity="0.25" points="31.000,70.000 25.000,46.000 17.000,56.000 21.000,72.000 " />
<polygon stroke="black" stroke-width="1" fill="rgb(204, 204, 204)" fill-opacity="0.25" points="126.000,40.000 118.000,40.000 118.000,51.000 126.000,51.000 " />
<polygon stroke="black" stroke-width="1" fill="rgb(204, 204, 204)" fill-opacity="0.25" points="25.000,46.000 2.000,46.000 7.000,56.000 17.000,56.000 " />
<polygon stroke="black" stroke-width="1" fill="rgb(204, 204, 204)" fill-opacity="0.25" points="114.000,74.000 114.000,54.000 107.000,54.000 107.000,74.000 " />
<polygon stroke="black" stroke-width="1" fill="rgb(204, 204, 204)" fill-opacity="0.25" points="126.000,14.000 118.000,14.000 118.000,24.000 126.000,24.000 " />
<polygon stroke="black" stroke-width="1" fill="rgb(204, 204, 204)" fill-opacity="0.25" points="126.000,90.000 118.000,90.000 118.000,110.000 126.000,110.000 " />
<polygon stroke="black" stroke-width="1" fill="rgb(204, 204, 204)" fill-opacity="0.25" points="81.000,19.000 105.000,19.000 105.000,2.000 84.000,2.000 " />
<polygon stroke="black" stroke-width="1" fill="rgb(204, 204, 204)" fill-opacity="0.25" points="114.000,112.000 114.000,92.000 107.000,92.000 107.000,112.000 " />
<polygon stroke="black" stroke-width="1" fill="rgb(204, 204, 204)" fill-opacity="0.25" points="76.000,43.000 86.000,45.000 89.000,29.000 81.000,19.000 " />
<polygon stroke="black" stroke-width="1" fill="rgb(204, 204, 204)" fill-opacity="0.25" points="81.000,19.000 89.000,29.000 100.000,29.000 105.000,19.000 " />
<polygon stroke="black" stroke-width="1" fill="rgb(204, 204, 204)" fill-opacity="0.25" points="114.000,92.000 114.000,74.000 107.000,74.000 107.000,92.000 " />
<polygon stroke="black" stroke-width="1" fill="rgb(204, 204, 204)" fill-opacity="0.25" points="114.000,2.000 106.000,2.000 106.000,29.000 114.000,29.000 " />
<polygon stroke="black" stroke-width="1" fill="rgb(204, 204, 204)" fill-opacity="0.25" points="47.000,19.000 67.000,19.000 67.000,6.000 47.000,6.000 " />
<polygon stroke="black" stroke-width="1" fill="rgb(204, 204, 204)" fill-opacity="0.25" points="126.000,75.000 118.000,75.000 118.000,90.000 126.000,90.000 " />
<polygon stroke="black" stroke-width="1" fill="rgb(204, 204, 204)" fill-opacity="0.25" points="60.000,46.000 60.000,33.000 40.000,33.000 40.000,46.000 " />
<polygon stroke="black" stroke-width="1" fill="rgb(204, 204, 204)" fill-opacity="0.25" points="67.000,19.000 81.000,19.000 84.000,2.000 67.000,6.000 " />
<polygon stroke="black" stroke-width="1" fill="rgb(204, 204, 204)" fill-opacity="0.25" points="40.000,46.000 40.000,33.000 23.000,29.000 25.000,46.000 " />
<polygon stroke="black" stroke-width="1" fill="rgb(204, 204, 204)" fill-opacity="0.25" points="114.000,50.000 114.000,33.000 107.000,33.000 107.000,50.000 " />
<polygon stroke="black" stroke-width="1" fill="rgb(204, 204, 204)" fill-opacity="0.25" points="41.000,48.000 41.000,57.000 54.000,57.000 54.000,48.000 " />
<polygon stroke="black" stroke-width="1" fill="rgb(204, 204, 204)" fill-opacity="0.25" points="41.000,70.000 54.000,70.000 54.000,61.000 41.000,61.000 " />
<polygon stroke="black" stroke-width="1" fill="rgb(204, 204, 204)" fill-opacity="0.25" points="41.000,57.000 32.000,57.000 32.000,61.000 41.000,61.000 " />
<polygon stroke="black" stroke-width="1" fill="rgb(204, 204, 204)" fill-opacity="0.25" points="54.000,57.000 41.000,57.000 41.000,61.000 54.000,61.000 " />
<polygon stroke="black" stroke-width="1" fill="rgb(204, 204, 204)" fill-opacity="0.25" points="63.000,57.000 54.000,57.000 54.000,61.000 63.000,61.000 " />
<polygon stroke="black" stroke-width="1" fill="rgb(204, 204, 204)" fill-opacity="0.25" points="10.000,70.000 10.000,68.000 2.000,68.000 2.000,70.000 " />
<polygon stroke="black" stroke-width="1" fill="rgb(204, 204, 204)" fill-opacity="0.25" points="14.000,64.000 16.000,64.000 16.000,62.000 14.000,62.000 " />
<polygon stroke="black" stroke-width="1" fill="rgb(204, 204, 204)" fill-opacity="0.25" points="2.000,64.000 10.000,64.000 10.000,61.000 2.000,61.000 " />
<polygon stroke="black" stroke-width="1" fill="rgb(204, 204, 204)" fill-opacity="0.25" points="2.000,64.000 2.000,66.000 10.000,66.000 10.000,64.000 " />
<polygon stroke="black" stroke-width="1" fill="rgb(204, 204, 204)" fill-opacity="0.25" points="47.000,19.000 47.000,6.000 35.000,1.000 35.000,29.000 " />
<polygon stroke="black" stroke-width="1" fill="rgb(204, 204, 204)" fill-opacity="0.25" points="114.000,112.000 107.000,112.000 107.000,124.000 114.000,124.000 " />
<polygon stroke="black" stroke-width="1" fill="rgb(204, 204, 204)" fill-opacity="0.25" points="126.000,110.000 118.000,110.000 118.000,126.000 126.000,126.000 " />
<polygon stroke="black" stroke-width="1" fill="rgb(204, 204, 204)" fill-opacity="0.25" points="60.000,33.000 60.000,46.000 72.000,56.000 72.000,29.000 " />
<polygon stroke="black" stroke-width="1" fill="rgb(204, 204, 204)" fill-opacity="0.25" points="6.000,94.000 11.000,91.000 11.000,77.000 6.000,74.000 1.000,77.000 1.000,91.000 " />
<polygon stroke="black" stroke-width="1" fill="rgb(204, 204, 204)" fill-opacity="0.25" points="45.000,82.000 105.000,82.000 105.000,76.000 45.000,76.000 " />
<polygon stroke="black" stroke-width="1" fill="rgb(204, 204, 204)" fill-opacity="0.25" points="45.000,101.000 105.000,101.000 105.000,96.000 45.000,96.000 " />
<polygon stroke="black" stroke-width="1" fill="rgb(204, 204, 204)" fill-opacity="0.25" points="45.000,107.000 105.000,107.000 105.000,101.000 45.000,101.000 " />
<polygon stroke="black" stroke-width="1" fill="rgb(204, 204, 204)" fill-opacity="0.25" points="45.000,96.000 105.000,96.000 105.000,82.000 45.000,82.000 " />
<polygon stroke="black" stroke-width="1" fill="rgb(204, 204, 204)" fill-opacity="0.25" points="45.000,127.000 105.000,127.000 105.000,121.000 45.000,121.000 " />
<polygon stroke="black" stroke-width="1" fill="rgb(204, 204, 204)" fill-opacity="0.25" points="27.000,103.000 27.000,98.000 23.000,98.000 23.000,103.000 " />
<polygon stroke="black" stroke-width="1" fill="rgb(204, 204, 204)" fill-opacity="0.25" points="1.000,96.000 1.000,101.000 19.000,101.000 19.000,96.000 " />
<polygon stroke="black" stroke-width="1" fill="rgb(204, 204, 204)" fill-opacity="0.25" points="27.000,109.000 27.000,105.000 23.000,105.000 23.000,109.000 " />
<polygon stroke="black" stroke-width="1" fill="rgb(204, 204, 204)" fill-opacity="0.25" points="19.000,105.000 19.000,101.000 1.000,101.000 1.000,105.000 " />
<polygon stroke="black" stroke-width="1" fill="rgb(204, 204, 204)" fill-opacity="0.25" points="19.000,110.000 19.000,105.000 1.000,105.000 1.000,110.000 " />
<polygon stroke="black" stroke-width="1" fill="rgb(204, 204, 204)" fill-opacity="0.25" points="11.000,8.000 11.000,13.000 32.000,13.000 32.000,8.000 " />
<polygon stroke="black" stroke-width="1" fill="rgb(204, 204, 204)" fill-opacity="0.25" points="32.000,22.000 32.000,17.000 11.000,17.000 11.000,22.000 " />
<polygon stroke="black" stroke-width="1" fill="rgb(204, 204, 204)" fill-opacity="0.25" points="2.000,1.000 2.000,6.000 7.000,6.000 7.000,1.000 " />
<polygon stroke="black" stroke-width="1" fill="rgb(204, 204, 204)" fill-opacity="0.25" points="32.000,8.000 32.000,3.000 11.000,3.000 11.000,8.000 " />
<polygon stroke="black" stroke-width="1" fill="rgb(204, 204, 204)" fill-opacity="0.25" points="32.000,17.000 32.000,12.000 11.000,12.000 11.000,17.000 " />
<polygon stroke="black" stroke-width="1" fill="rgb(204, 204, 204)" fill-opacity="0.25" points="35.000,92.000 36.000,92.000 36.000,82.000 35.000,82.000 " />
<polygon stroke="black" stroke-width="1" fill="rgb(204, 204, 204)" fill-opacity="0.25" points="35.000,71.000 35.000,82.000 36.000,82.000 36.000,71.000 " />
<polygon stroke="black" stroke-width="1" fill="rgb(204, 204, 204)" fill-opacity="0.25" points="36.000,92.000 42.000,92.000 36.000,82.000 " />
<polygon stroke="black" stroke-width="1" fill="rgb(204, 204, 204)" fill-opacity="0.25" points="35.000,82.000 28.000,92.000 35.000,92.000 " />
<polygon stroke="black" stroke-width="1" fill="rgb(204, 204, 204)" fill-opacity="0.25" points="45.000,121.000 105.000,121.000 105.000,107.000 45.000,107.000 " />
<polygon stroke="black" stroke-width="1" fill="rgb(204, 204, 204)" fill-opacity="0.25" points="10.000,66.000 2.000,66.000 2.000,68.000 10.000,68.000 " />
<polygon stroke="black" stroke-width="1" fill="rgb(204, 204, 204)" fill-opacity="0.25" points="26.000,91.000 26.000,78.000 21.000,75.000 16.000,78.000 16.000,91.000 21.000,94.000 " />

</svg>
